<svg width="145" height="24" viewBox="0 0 145 24" fill="none" xmlns="http://www.w3.org/2000/svg">
<path d="M10.028 11.404H17.03C17.03 12.124 17 12.778 16.94 13.366C16.88 13.954 16.76 14.5 16.58 15.004C16.328 15.712 15.986 16.342 15.554 16.894C15.122 17.434 14.612 17.89 14.024 18.262C13.448 18.622 12.812 18.898 12.116 19.09C11.42 19.282 10.688 19.378 9.92 19.378C8.864 19.378 7.898 19.204 7.022 18.856C6.158 18.508 5.414 18.022 4.79 17.398C4.166 16.762 3.68 16.006 3.332 15.13C2.984 14.242 2.81 13.264 2.81 12.196C2.81 11.14 2.978 10.174 3.314 9.298C3.662 8.41 4.148 7.654 4.772 7.03C5.408 6.406 6.17 5.92 7.058 5.572C7.946 5.224 8.936 5.05 10.028 5.05C11.444 5.05 12.686 5.356 13.754 5.968C14.822 6.58 15.668 7.528 16.292 8.812L12.944 10.198C12.632 9.454 12.224 8.92 11.72 8.596C11.228 8.272 10.664 8.11 10.028 8.11C9.5 8.11 9.02 8.212 8.588 8.416C8.156 8.608 7.784 8.89 7.472 9.262C7.172 9.622 6.932 10.06 6.752 10.576C6.584 11.092 6.5 11.668 6.5 12.304C6.5 12.88 6.572 13.414 6.716 13.906C6.872 14.398 7.1 14.824 7.4 15.184C7.7 15.544 8.072 15.826 8.516 16.03C8.96 16.222 9.476 16.318 10.064 16.318C10.412 16.318 10.748 16.282 11.072 16.21C11.396 16.126 11.684 16 11.936 15.832C12.2 15.652 12.416 15.424 12.584 15.148C12.752 14.872 12.866 14.536 12.926 14.14H10.028V11.404ZM22.2119 4.06V19H18.9539V4.06H22.2119ZM31.1883 13.042C31.0803 12.586 30.8583 12.22 30.5223 11.944C30.1863 11.668 29.7783 11.53 29.2983 11.53C28.7943 11.53 28.3803 11.662 28.0563 11.926C27.7443 12.19 27.5463 12.562 27.4623 13.042H31.1883ZM27.3723 14.932C27.3723 16.336 28.0323 17.038 29.3523 17.038C30.0603 17.038 30.5943 16.75 30.9543 16.174H34.1043C33.4683 18.286 31.8783 19.342 29.3343 19.342C28.5543 19.342 27.8403 19.228 27.1923 19C26.5443 18.76 25.9863 18.424 25.5183 17.992C25.0623 17.56 24.7083 17.044 24.4563 16.444C24.2043 15.844 24.0783 15.172 24.0783 14.428C24.0783 13.66 24.1983 12.97 24.4383 12.358C24.6783 11.734 25.0203 11.206 25.4643 10.774C25.9083 10.342 26.4423 10.012 27.0663 9.784C27.7023 9.544 28.4163 9.424 29.2083 9.424C29.9883 9.424 30.6903 9.544 31.3143 9.784C31.9383 10.012 32.4663 10.348 32.8983 10.792C33.3303 11.236 33.6603 11.782 33.8883 12.43C34.1163 13.066 34.2303 13.786 34.2303 14.59V14.932H27.3723ZM39.1166 14.356C39.1166 14.656 39.1706 14.938 39.2786 15.202C39.3866 15.454 39.5306 15.676 39.7106 15.868C39.9026 16.06 40.1246 16.21 40.3766 16.318C40.6406 16.426 40.9226 16.48 41.2226 16.48C41.5106 16.48 41.7806 16.426 42.0326 16.318C42.2966 16.21 42.5186 16.06 42.6986 15.868C42.8906 15.676 43.0406 15.454 43.1486 15.202C43.2686 14.95 43.3286 14.68 43.3286 14.392C43.3286 14.104 43.2686 13.834 43.1486 13.582C43.0406 13.318 42.8906 13.09 42.6986 12.898C42.5186 12.706 42.2966 12.556 42.0326 12.448C41.7806 12.34 41.5106 12.286 41.2226 12.286C40.9226 12.286 40.6406 12.34 40.3766 12.448C40.1246 12.556 39.9026 12.706 39.7106 12.898C39.5306 13.09 39.3866 13.312 39.2786 13.564C39.1706 13.804 39.1166 14.068 39.1166 14.356ZM43.2206 9.766H46.4966V19H43.2206V17.974C42.5246 18.85 41.5826 19.288 40.3946 19.288C39.7226 19.288 39.1046 19.168 38.5406 18.928C37.9766 18.676 37.4846 18.328 37.0646 17.884C36.6446 17.44 36.3146 16.918 36.0746 16.318C35.8466 15.718 35.7326 15.064 35.7326 14.356C35.7326 13.696 35.8466 13.072 36.0746 12.484C36.3026 11.884 36.6206 11.362 37.0286 10.918C37.4366 10.474 37.9226 10.126 38.4866 9.874C39.0506 9.61 39.6746 9.478 40.3586 9.478C41.5106 9.478 42.4646 9.88 43.2206 10.684V9.766ZM48.7137 9.766H51.9717V10.9C52.8597 10.048 53.8557 9.622 54.9597 9.622C56.3277 9.622 57.3717 10.198 58.0917 11.35C58.8237 10.186 59.8677 9.604 61.2237 9.604C61.6557 9.604 62.0637 9.67 62.4477 9.802C62.8317 9.922 63.1617 10.12 63.4377 10.396C63.7137 10.66 63.9297 11.008 64.0857 11.44C64.2537 11.872 64.3377 12.394 64.3377 13.006V19H61.0797V14.446C61.0797 13.978 61.0437 13.594 60.9717 13.294C60.9117 12.994 60.8157 12.76 60.6837 12.592C60.5637 12.424 60.4197 12.31 60.2517 12.25C60.0837 12.19 59.9037 12.16 59.7117 12.16C58.6677 12.16 58.1457 12.922 58.1457 14.446V19H54.8877V14.446C54.8877 13.978 54.8577 13.594 54.7977 13.294C54.7377 12.982 54.6477 12.736 54.5277 12.556C54.4197 12.376 54.2757 12.256 54.0957 12.196C53.9157 12.124 53.7057 12.088 53.4657 12.088C53.2617 12.088 53.0697 12.118 52.8897 12.178C52.7097 12.238 52.5477 12.358 52.4037 12.538C52.2717 12.706 52.1637 12.946 52.0797 13.258C52.0077 13.558 51.9717 13.954 51.9717 14.446V19H48.7137V9.766ZM76.653 9.964C75.837 8.968 74.829 8.47 73.629 8.47C73.101 8.47 72.609 8.566 72.153 8.758C71.709 8.95 71.325 9.214 71.001 9.55C70.677 9.874 70.419 10.264 70.227 10.72C70.047 11.176 69.957 11.668 69.957 12.196C69.957 12.736 70.047 13.234 70.227 13.69C70.419 14.146 70.677 14.542 71.001 14.878C71.337 15.214 71.727 15.478 72.171 15.67C72.615 15.862 73.095 15.958 73.611 15.958C74.739 15.958 75.753 15.478 76.653 14.518V18.694L76.293 18.82C75.753 19.012 75.249 19.15 74.781 19.234C74.313 19.33 73.851 19.378 73.395 19.378C72.459 19.378 71.559 19.204 70.695 18.856C69.843 18.496 69.087 17.998 68.427 17.362C67.779 16.714 67.257 15.952 66.861 15.076C66.465 14.188 66.267 13.222 66.267 12.178C66.267 11.134 66.459 10.18 66.843 9.316C67.239 8.44 67.761 7.69 68.409 7.066C69.069 6.43 69.831 5.938 70.695 5.59C71.559 5.23 72.465 5.05 73.413 5.05C73.953 5.05 74.481 5.11 74.997 5.23C75.525 5.338 76.077 5.512 76.653 5.752V9.964ZM81.6569 14.338C81.6569 14.65 81.7109 14.938 81.8189 15.202C81.9389 15.454 82.0889 15.676 82.2689 15.868C82.4609 16.06 82.6829 16.21 82.9349 16.318C83.1989 16.426 83.4749 16.48 83.7629 16.48C84.0509 16.48 84.3209 16.426 84.5729 16.318C84.8369 16.21 85.0589 16.06 85.2389 15.868C85.4309 15.676 85.5809 15.454 85.6889 15.202C85.8089 14.938 85.8689 14.656 85.8689 14.356C85.8689 14.068 85.8089 13.798 85.6889 13.546C85.5809 13.282 85.4309 13.054 85.2389 12.862C85.0589 12.67 84.8369 12.52 84.5729 12.412C84.3209 12.304 84.0509 12.25 83.7629 12.25C83.4749 12.25 83.1989 12.304 82.9349 12.412C82.6829 12.52 82.4609 12.67 82.2689 12.862C82.0889 13.054 81.9389 13.276 81.8189 13.528C81.7109 13.78 81.6569 14.05 81.6569 14.338ZM78.2189 14.302C78.2189 13.618 78.3569 12.982 78.6329 12.394C78.9089 11.794 79.2929 11.278 79.7849 10.846C80.2769 10.402 80.8589 10.054 81.5309 9.802C82.2149 9.55 82.9589 9.424 83.7629 9.424C84.5549 9.424 85.2869 9.55 85.9589 9.802C86.6429 10.042 87.2309 10.384 87.7229 10.828C88.2269 11.26 88.6169 11.782 88.8929 12.394C89.1689 12.994 89.3069 13.66 89.3069 14.392C89.3069 15.124 89.1629 15.796 88.8749 16.408C88.5989 17.008 88.2149 17.53 87.7229 17.974C87.2309 18.406 86.6369 18.742 85.9409 18.982C85.2569 19.222 84.5129 19.342 83.7089 19.342C82.9169 19.342 82.1849 19.222 81.5129 18.982C80.8409 18.742 80.2589 18.4 79.7669 17.956C79.2869 17.512 78.9089 16.984 78.6329 16.372C78.3569 15.748 78.2189 15.058 78.2189 14.302ZM91.1824 9.766H94.4404V10.9C95.3284 10.048 96.3244 9.622 97.4284 9.622C98.7964 9.622 99.8404 10.198 100.56 11.35C101.292 10.186 102.336 9.604 103.692 9.604C104.124 9.604 104.532 9.67 104.916 9.802C105.3 9.922 105.63 10.12 105.906 10.396C106.182 10.66 106.398 11.008 106.554 11.44C106.722 11.872 106.806 12.394 106.806 13.006V19H103.548V14.446C103.548 13.978 103.512 13.594 103.44 13.294C103.38 12.994 103.284 12.76 103.152 12.592C103.032 12.424 102.888 12.31 102.72 12.25C102.552 12.19 102.372 12.16 102.18 12.16C101.136 12.16 100.614 12.922 100.614 14.446V19H97.3564V14.446C97.3564 13.978 97.3264 13.594 97.2664 13.294C97.2064 12.982 97.1164 12.736 96.9964 12.556C96.8884 12.376 96.7444 12.256 96.5644 12.196C96.3844 12.124 96.1744 12.088 95.9344 12.088C95.7304 12.088 95.5384 12.118 95.3584 12.178C95.1784 12.238 95.0164 12.358 94.8724 12.538C94.7404 12.706 94.6324 12.946 94.5484 13.258C94.4764 13.558 94.4404 13.954 94.4404 14.446V19H91.1824V9.766ZM116.72 14.41C116.72 14.122 116.666 13.852 116.558 13.6C116.462 13.336 116.318 13.108 116.126 12.916C115.934 12.724 115.706 12.574 115.442 12.466C115.19 12.346 114.914 12.286 114.614 12.286C114.326 12.286 114.056 12.34 113.804 12.448C113.552 12.556 113.33 12.706 113.138 12.898C112.958 13.09 112.808 13.318 112.688 13.582C112.58 13.834 112.526 14.104 112.526 14.392C112.526 14.68 112.58 14.95 112.688 15.202C112.796 15.454 112.946 15.676 113.138 15.868C113.33 16.048 113.552 16.198 113.804 16.318C114.068 16.426 114.344 16.48 114.632 16.48C114.92 16.48 115.19 16.426 115.442 16.318C115.694 16.21 115.91 16.06 116.09 15.868C116.282 15.676 116.432 15.454 116.54 15.202C116.66 14.95 116.72 14.686 116.72 14.41ZM112.616 23.608H109.358V9.766H112.616V10.792C113.312 9.916 114.26 9.478 115.46 9.478C116.12 9.478 116.732 9.61 117.296 9.874C117.872 10.126 118.37 10.474 118.79 10.918C119.21 11.362 119.534 11.884 119.762 12.484C120.002 13.084 120.122 13.726 120.122 14.41C120.122 15.094 120.002 15.73 119.762 16.318C119.534 16.906 119.21 17.422 118.79 17.866C118.382 18.31 117.896 18.658 117.332 18.91C116.768 19.162 116.156 19.288 115.496 19.288C114.344 19.288 113.384 18.892 112.616 18.1V23.608ZM125.237 9.766V19H121.979V9.766H125.237ZM121.763 6.22C121.763 5.968 121.811 5.734 121.907 5.518C122.003 5.29 122.135 5.092 122.303 4.924C122.471 4.756 122.663 4.624 122.879 4.528C123.107 4.432 123.347 4.384 123.599 4.384C123.851 4.384 124.085 4.432 124.301 4.528C124.529 4.624 124.727 4.756 124.895 4.924C125.063 5.092 125.195 5.29 125.291 5.518C125.387 5.734 125.435 5.968 125.435 6.22C125.435 6.472 125.387 6.712 125.291 6.94C125.195 7.156 125.063 7.348 124.895 7.516C124.727 7.684 124.529 7.816 124.301 7.912C124.085 8.008 123.851 8.056 123.599 8.056C123.347 8.056 123.107 8.008 122.879 7.912C122.663 7.816 122.471 7.684 122.303 7.516C122.135 7.348 122.003 7.156 121.907 6.94C121.811 6.712 121.763 6.472 121.763 6.22ZM130.722 4.06V19H127.464V4.06H130.722ZM139.698 13.042C139.59 12.586 139.368 12.22 139.032 11.944C138.696 11.668 138.288 11.53 137.808 11.53C137.304 11.53 136.89 11.662 136.566 11.926C136.254 12.19 136.056 12.562 135.972 13.042H139.698ZM135.882 14.932C135.882 16.336 136.542 17.038 137.862 17.038C138.57 17.038 139.104 16.75 139.464 16.174H142.614C141.978 18.286 140.388 19.342 137.844 19.342C137.064 19.342 136.35 19.228 135.702 19C135.054 18.76 134.496 18.424 134.028 17.992C133.572 17.56 133.218 17.044 132.966 16.444C132.714 15.844 132.588 15.172 132.588 14.428C132.588 13.66 132.708 12.97 132.948 12.358C133.188 11.734 133.53 11.206 133.974 10.774C134.418 10.342 134.952 10.012 135.576 9.784C136.212 9.544 136.926 9.424 137.718 9.424C138.498 9.424 139.2 9.544 139.824 9.784C140.448 10.012 140.976 10.348 141.408 10.792C141.84 11.236 142.17 11.782 142.398 12.43C142.626 13.066 142.74 13.786 142.74 14.59V14.932H135.882Z" fill="#050505"/>
</svg>
