<svg fill="none" height="25" viewBox="0 0 119 25" width="119" xmlns="http://www.w3.org/2000/svg"><path d="m10.028 11.404h7.002c0 .72-.03 1.374-.09 1.962s-.18 1.134-.36 1.638c-.252.708-.594 1.338-1.026 1.89-.432.54-.942.996-1.53 1.368-.576.36-1.212.636-1.908.828s-1.428.288-2.196.288c-1.056 0-2.022-.174-2.898-.522-.864-.348-1.608-.834-2.232-1.458-.624-.636-1.11-1.392-1.458-2.268-.348-.888-.522-1.866-.522-2.934 0-1.056.168-2.022.504-2.898.348-.888.834-1.644 1.458-2.268.636-.624 1.398-1.11 2.286-1.458s1.878-.522 2.97-.522c1.416 0 2.658.306 3.726.918s1.914 1.56 2.538 2.844l-3.348 1.386c-.312-.744-.72-1.278-1.224-1.602-.492-.324-1.056-.486-1.692-.486-.528 0-1.008.102-1.44.306-.432.192-.804.474-1.116.846-.3.36-.54.798-.72 1.314-.168.516-.252 1.092-.252 1.728 0 .576.072 1.11.216 1.602.156.492.384.918.684 1.278s.672.642 1.116.846c.444.192.96.288 1.548.288.348 0 .684-.036 1.008-.108.324-.084.612-.21.864-.378.264-.18.48-.408.648-.684s.282-.612.342-1.008h-2.898zm12.1839-7.344v14.94h-3.258v-14.94zm8.9764 8.982c-.108-.456-.33-.822-.666-1.098s-.744-.414-1.224-.414c-.504 0-.918.132-1.242.396-.312.264-.51.636-.594 1.116zm-3.816 1.89c0 1.404.66 2.106 1.98 2.106.708 0 1.242-.288 1.602-.864h3.15c-.636 2.112-2.226 3.168-4.77 3.168-.78 0-1.494-.114-2.142-.342-.648-.24-1.206-.576-1.674-1.008-.456-.432-.81-.948-1.062-1.548s-.378-1.272-.378-2.016c0-.768.12-1.458.36-2.07.24-.624.582-1.152 1.026-1.584s.978-.762 1.602-.99c.636-.24 1.35-.36 2.142-.36.78 0 1.482.12 2.106.36.624.228 1.152.564 1.584 1.008s.762.99.99 1.638c.228.636.342 1.356.342 2.16v.342zm11.7443-.576c0 .3.054.582.162.846.108.252.252.474.432.666.192.192.414.342.666.45.264.108.546.162.846.162.288 0 .558-.054.81-.162.264-.108.486-.258.666-.45.192-.192.342-.414.45-.666.12-.252.18-.522.18-.81s-.06-.558-.18-.81c-.108-.264-.258-.492-.45-.684-.18-.192-.402-.342-.666-.45-.252-.108-.522-.162-.81-.162-.3 0-.582.054-.846.162-.252.108-.474.258-.666.45-.18.192-.324.414-.432.666-.108.24-.162.504-.162.792zm4.104-4.59h3.276v9.234h-3.276v-1.026c-.696.876-1.638 1.314-2.826 1.314-.672 0-1.29-.12-1.854-.36-.564-.252-1.056-.6-1.476-1.044s-.75-.966-.99-1.566c-.228-.6-.342-1.254-.342-1.962 0-.66.114-1.284.342-1.872.228-.6.546-1.122.954-1.566s.894-.792 1.458-1.044c.564-.264 1.188-.396 1.872-.396 1.152 0 2.106.402 2.862 1.206zm5.4931 0h3.258v1.134c.888-.852 1.884-1.278 2.988-1.278 1.368 0 2.412.576 3.132 1.728.732-1.164 1.776-1.746 3.132-1.746.432 0 .84.066 1.224.198.384.12.714.318.99.594.276.264.492.612.648 1.044.168.432.252.954.252 1.566v5.994h-3.258v-4.554c0-.468-.036-.852-.108-1.152-.06-.3-.156-.534-.288-.702-.12-.168-.264-.282-.432-.342s-.348-.09-.54-.09c-1.044 0-1.566.762-1.566 2.286v4.554h-3.258v-4.554c0-.468-.03-.852-.09-1.152-.06-.312-.15-.558-.27-.738-.108-.18-.252-.3-.432-.36-.18-.072-.39-.108-.63-.108-.204 0-.396.03-.576.09s-.342.18-.486.36c-.132.168-.24.408-.324.72-.072.3-.108.696-.108 1.188v4.554h-3.258zm25.8873-1.35h-4.194v2.268h3.96v2.988h-3.96v2.34h4.194v2.988h-7.722v-13.572h7.722zm5.4957-4.356v14.94h-3.258v-14.94zm5.4843 5.706v9.234h-3.258v-9.234zm-3.474-3.546c0-.252.048-.486.144-.702.096-.228.228-.426.396-.594s.36-.3.576-.396c.228-.096.468-.144.72-.144s.486.048.702.144c.228.096.426.228.594.396s.3.366.396.594c.096.216.144.45.144.702s-.048.492-.144.72c-.096.216-.228.408-.396.576s-.366.3-.594.396c-.216.096-.45.144-.702.144s-.492-.048-.72-.144c-.216-.096-.408-.228-.576-.396s-.3-.36-.396-.576c-.096-.228-.144-.468-.144-.72zm9.1924 7.776-3.744-4.23h4.248l1.584 1.908 1.62-1.908h4.248l-3.834 4.23 4.6256 5.004h-4.3196l-2.358-2.736-2.376 2.736h-4.302zm13.1256-4.23v9.234h-3.258v-9.234zm-3.474-3.546c0-.252.048-.486.144-.702.096-.228.228-.426.396-.594s.36-.3.576-.396c.228-.096.468-.144.72-.144s.486.048.702.144c.228.096.426.228.594.396s.3.366.396.594c.096.216.144.45.144.702s-.048.492-.144.72c-.096.216-.228.408-.396.576s-.366.3-.594.396c-.216.096-.45.144-.702.144s-.492-.048-.72-.144c-.216-.096-.408-.228-.576-.396s-.3-.36-.396-.576c-.096-.228-.144-.468-.144-.72zm5.7 3.546h3.258v1.512c.348-.552.774-.972 1.278-1.26.504-.3 1.092-.45 1.764-.45h.27c.108 0 .228.012.36.036v3.114c-.432-.216-.9-.324-1.404-.324-.756 0-1.326.228-1.71.684-.372.444-.558 1.098-.558 1.962v3.96h-3.258z" fill="#050505"/></svg>